<svg width="1080" height="1080" viewBox="0 0 1080 1080" fill="none" xmlns="http://www.w3.org/2000/svg">
<path d="M952.642 743.137L952.551 743.771C947.204 781.195 915.423 793.115 900.315 794.448L899.921 794.482H591.904L591.292 794.398C590.193 794.247 589.106 794.047 588.032 793.806H582.672C573.714 793.806 556.229 787.555 539.616 768.01C528.844 755.336 506.007 728.274 487.062 705.799L485.267 704.636L485.319 703.732C477.866 694.89 471.109 686.871 466.062 680.877L466.048 680.86L466.034 680.845L245.527 416.455V669.83L336.949 590.239L337.197 590.024L337.459 589.828L341.984 586.435L342.355 586.155L342.754 585.917C347.758 582.915 357.074 581.887 365.589 588.982L368.827 591.681V594.203C370.241 597.442 373.221 605.605 367.315 614.463C363.683 619.912 306.98 704.209 279.082 745.68L279.083 745.681L260.983 772.83L260.939 772.896L260.895 772.96C256.423 779.419 243.526 791.546 224.612 792.658L224.349 792.674H201.729L200.882 792.51C193.776 791.135 183.412 787.25 174.176 779.922C164.785 772.471 156.275 761.199 154.084 745.312L154 744.7V338.72L154.035 338.325C155.368 323.218 167.289 291.437 204.713 286.091L205.346 286H227.823L228.168 286.026C231.096 286.252 235.712 286.893 240.622 288.097C245.431 289.276 251.206 291.157 256.003 294.155C260.67 297.072 266.059 302.248 270.488 306.876C275.056 311.649 279.307 316.593 281.896 319.774L579.399 676.099L579.471 676.184L579.539 676.271C581.3 678.489 582.855 680.271 584.842 682.571C586.576 684.579 588.551 686.881 591.062 689.981L592.173 691.36L592.367 691.604L592.45 691.723C592.549 691.857 592.643 691.993 592.734 692.13C595.802 696.546 597.808 699.08 599.106 700.66C599.364 700.973 599.676 701.349 599.981 701.716L602.086 702.768L614.721 702.955H822.187L557.797 482.448L557.764 482.421C536.277 464.327 488.749 424.268 470.631 408.867C451.086 392.254 444.836 374.77 444.836 365.812V339.513L444.854 339.232C445.952 321.662 454.973 309.12 465.284 300.847C475.417 292.717 487.116 288.396 495.104 286.843L495.954 286.678H764.989L899.601 287.809L899.6 287.811C905.482 287.838 917.196 291.099 930.773 300.797C946.354 311.926 950.931 330.629 951.477 339.005C951.488 339.005 951.499 339.005 951.51 339.005V354.499C951.51 365.015 947.389 374.116 942.737 380.945C938.096 387.76 932.513 392.934 928.47 395.788L928.416 395.826L928.362 395.863L906.869 410.568L906.839 410.589L906.81 410.609C884.942 425.314 851.914 447.539 823.902 466.427C809.896 475.871 797.148 484.478 787.678 490.893C782.941 494.1 779.031 496.755 776.196 498.69C774.778 499.659 773.637 500.44 772.801 501.018C772.382 501.307 772.051 501.538 771.804 501.712C771.528 501.905 771.435 501.974 771.444 501.967C766.866 505.4 761.596 506.199 756.573 504.63C752.226 503.271 748.714 500.345 746.106 497.737C741.613 493.244 741.174 487.567 741.604 483.771C742.034 479.979 743.432 476.606 744.656 474.465L745.106 473.676L745.706 472.993L827.916 379.336H574.822L918.867 666.586C922.048 669.175 926.993 673.426 931.766 677.994C936.393 682.424 941.57 687.813 944.486 692.479C947.484 697.276 949.365 703.052 950.544 707.86C951.748 712.771 952.389 717.386 952.614 720.314L952.642 720.659V743.137Z" fill="#00EC97" stroke="black" stroke-width="18"/>
</svg>
