<svg width="1080" height="1080" viewBox="0 0 1080 1080" fill="none" xmlns="http://www.w3.org/2000/svg">
<rect width="1080" height="1080" fill="#00EC97"/>
<path d="M943.641 742.497V721.005C943.264 716.103 941.379 704.49 936.854 697.25C932.329 690.01 919.132 678.397 913.099 673.495L646.138 450.65L556.774 375.992C556.02 374.107 556.095 370.336 562.43 370.336H838.44L841.834 371.467V377.123L752.47 478.93C750.962 481.57 748.85 487.754 752.47 491.373C756.995 495.898 761.52 498.16 766.044 494.767C769.664 492.052 858.048 432.551 901.787 403.141L923.28 388.435C929.69 383.91 942.51 370.788 942.51 354.499V339.794C942.133 333.007 938.211 317.17 925.542 308.121C912.873 299.071 902.918 296.809 899.525 296.809L764.913 295.678H618.99H496.821C483.247 298.317 455.646 310.836 453.836 339.794V365.811C453.836 371.467 458.361 386.625 476.46 402.009C494.559 417.394 542.069 457.438 563.561 475.537L714.01 601.099L836.178 702.906L838.44 706.299V708.562V710.824L835.047 711.955H773.963H634.826H614.653L599.899 711.737L591.047 707.31L582.194 694.988H520.228L489.245 606.984L470.804 593.706C471.935 591.82 459.492 582.906 454.967 577.476C404.804 621.738 463.574 589.181 456.787 593.706C451.357 597.325 539.429 648.986 497.952 676.888L505.052 670.426C500.15 673.819 495.464 684.549 494.559 699.933L542.359 730.917C544.621 742.606 566.279 781.863 592.522 785.483H625.777H740.027H859.933H899.525C912.345 784.352 939.116 774.171 943.641 742.497Z" fill="#0C0B0B"/>
<path d="M227.478 295H205.985C174.312 299.525 164.131 326.296 163 339.116V378.708V498.614V612.864V744.082C166.62 770.326 190.903 781.412 202.592 783.674H224.084C239.468 782.769 250.102 772.739 253.495 767.837L271.594 740.689C299.497 699.212 356.207 614.9 359.827 609.471C363.42 604.082 361.307 599.406 360.284 597.142C360.019 596.555 359.827 596.13 359.827 595.896C354.397 591.372 349.269 592.503 347.384 593.634L342.859 597.028L246.708 680.736L243.314 684.129H241.052L237.659 682.998L236.527 680.736V603.815V464.678V403.594L237.659 400.201H239.921H242.183L245.577 402.463L347.384 524.632L472.946 675.08C491.045 696.572 531.089 744.082 546.473 762.181C561.858 780.28 577.015 784.805 582.671 784.805H608.689C637.647 782.995 650.166 755.394 652.805 741.82L558.588 696.983H546.473L558.588 704.36C546.473 730.917 580.53 754.489 571.481 741.82C562.431 729.151 594.671 774.725 582.671 722.064L594.098 736.818C577.809 736.818 577.016 715.654 572.491 722.064C543.08 765.804 578.147 736.818 578.147 736.818C578.147 736.818 605.295 730.748 608.689 736.818C612.082 742.888 568.198 688.13 578.147 736.818H594.098V730.917L595.473 722.064C593.997 703.44 598.423 716.163 585.145 696.983C579.243 689.606 576.293 686.655 572.491 681.867L497.832 592.503L274.988 325.542C270.086 319.509 258.472 306.312 251.233 301.787C243.993 297.262 232.38 295.377 227.478 295Z" fill="#0C0B0B"/>
</svg>
